<?xml version="1.0" encoding="UTF-8"?>
<!DOCTYPE svg PUBLIC "-//W3C//DTD SVG 1.1//EN" "http://www.w3.org/Graphics/SVG/1.1/DTD/svg11.dtd">
<svg xmlns="http://www.w3.org/2000/svg" version="1.1" width="76px" height="42px" style="shape-rendering:geometricPrecision; text-rendering:geometricPrecision; image-rendering:optimizeQuality; fill-rule:evenodd; clip-rule:evenodd" xmlns:xlink="http://www.w3.org/1999/xlink">
<g><path style="opacity:0.729" fill="#0059dc" d="M 35.5,-0.5 C 36.8333,-0.5 38.1667,-0.5 39.5,-0.5C 40.347,0.96626 41.6803,1.79959 43.5,2C 47.1516,2.49863 50.8183,2.6653 54.5,2.5C 54.9383,10.6289 54.2716,18.6289 52.5,26.5C 51.6618,26.8417 51.3284,27.5084 51.5,28.5C 50.8333,28.5 50.5,28.8333 50.5,29.5C 48.7376,30.2623 47.7376,31.5956 47.5,33.5C 44.4224,35.9077 41.0891,37.9077 37.5,39.5C 31.6768,37.261 27.0101,33.5943 23.5,28.5C 23.3404,26.847 22.6737,25.5137 21.5,24.5C 20.1027,17.5559 19.6027,10.5559 20,3.5C 23.7454,2.70304 27.5787,2.20304 31.5,2C 33.3197,1.79959 34.653,0.96626 35.5,-0.5 Z M 36.5,4.5 C 41.0068,6.11262 45.6734,6.77929 50.5,6.5C 52.6565,19.1842 48.1565,28.5175 37,34.5C 26.2627,28.2781 22.096,19.1114 24.5,7C 28.7964,6.92439 32.7964,6.09106 36.5,4.5 Z"/></g>
<g><path style="opacity:0.837" fill="#0059dc" d="M 21.5,24.5 C 21.2291,26.3797 21.8958,27.713 23.5,28.5C 26.1194,34.1189 30.1194,38.4523 35.5,41.5C 32.1667,41.5 28.8333,41.5 25.5,41.5C 13.8718,38.6856 5.20514,32.019 -0.5,21.5C -0.5,20.1667 -0.5,18.8333 -0.5,17.5C 3.23556,18.4767 3.23556,17.81 -0.5,15.5C -0.5,12.8333 -0.5,10.1667 -0.5,7.5C 7.52018,2.0755 12.3535,4.0755 14,13.5C 14.8811,9.62436 16.2145,5.95769 18,2.5C 18.3333,7.83333 18.6667,13.1667 19,18.5C 19.2401,20.8516 20.0735,22.8516 21.5,24.5 Z M 12.5,16.5 C 12.7692,18.4286 12.2692,20.0953 11,21.5C 8.55287,20.5944 6.05287,19.7611 3.5,19C 6.81118,18.9434 9.81118,18.1101 12.5,16.5 Z"/></g>
<g><path style="opacity:0.843" fill="#0059dc" d="M 75.5,7.5 C 75.5,10.1667 75.5,12.8333 75.5,15.5C 71.7644,17.81 71.7644,18.4767 75.5,17.5C 75.5,18.8333 75.5,20.1667 75.5,21.5C 69.7949,32.019 61.1282,38.6856 49.5,41.5C 46.1667,41.5 42.8333,41.5 39.5,41.5C 41.3162,39.8634 43.3162,38.3634 45.5,37C 46.8228,36.1841 47.4894,35.0174 47.5,33.5C 49.2624,32.7377 50.2624,31.4044 50.5,29.5C 51.1667,29.5 51.5,29.1667 51.5,28.5C 52.3382,28.1583 52.6716,27.4916 52.5,26.5C 54.328,23.865 55.4947,20.865 56,17.5C 57.2461,12.4866 57.5795,7.48661 57,2.5C 58.917,5.91461 60.2504,9.58127 61,13.5C 62.6465,4.0755 67.4798,2.0755 75.5,7.5 Z M 62.5,16.5 C 65.1888,18.1101 68.1888,18.9434 71.5,19C 68.9471,19.7611 66.4471,20.5944 64,21.5C 62.7308,20.0953 62.2308,18.4286 62.5,16.5 Z"/></g>
<g><path style="opacity:0.862" fill="#fe1b39" d="M 34.5,7.5 C 36.4672,7.26057 38.3005,7.59391 40,8.5C 40.4966,10.8098 40.6633,13.1432 40.5,15.5C 42.8333,15.5 45.1667,15.5 47.5,15.5C 47.5,17.1667 47.5,18.8333 47.5,20.5C 45.1667,20.5 42.8333,20.5 40.5,20.5C 40.5,22.8333 40.5,25.1667 40.5,27.5C 38.5,27.5 36.5,27.5 34.5,27.5C 34.5,25.1667 34.5,22.8333 34.5,20.5C 32.1667,20.5 29.8333,20.5 27.5,20.5C 27.5,18.8333 27.5,17.1667 27.5,15.5C 29.8333,15.5 32.1667,15.5 34.5,15.5C 34.5,12.8333 34.5,10.1667 34.5,7.5 Z"/></g>
</svg>
