<?xml version="1.0" standalone="no"?>
<!DOCTYPE svg PUBLIC "-//W3C//DTD SVG 20010904//EN"
 "http://www.w3.org/TR/2001/REC-SVG-20010904/DTD/svg10.dtd">
<svg version="1.0" xmlns="http://www.w3.org/2000/svg"
 width="76.000000pt" height="42.000000pt" viewBox="0 0 76.000000 42.000000"
 preserveAspectRatio="xMidYMid meet">

<g transform="translate(0.000000,42.000000) scale(0.100000,-0.100000)"
fill="none" stroke="none">
<path fill="#fc1c3c" d="M335 395 c-16 -8 -52 -14 -79 -15 l-49 0 6 -83 c8 -112 27 -156 99
-222 57 -53 60 -55 86 -41 44 23 119 110 131 152 6 22 14 74 18 117 l6 77 -54
0 c-30 1 -65 7 -79 15 -31 17 -46 17 -85 0z m105 -36 c19 -4 45 -6 58 -2 21 5
22 2 22 -53 0 -33 -5 -77 -11 -98 -12 -44 -102 -146 -129 -146 -10 0 -39 22
-67 49 -56 55 -73 99 -73 187 l0 59 49 1 c27 1 57 7 68 13 10 6 25 8 33 5 8
-4 31 -10 50 -15z"/>
<path fill="#005adc" d="M360 295 c0 -34 -1 -35 -41 -35 -36 0 -40 -2 -37 -22 2 -19 10 -24
41 -26 35 -3 37 -5 37 -38 0 -27 4 -34 20 -34 16 0 20 7 20 35 0 33 2 35 35
35 31 0 35 3 35 25 0 22 -4 25 -35 25 -33 0 -35 2 -35 35 0 28 -4 35 -20 35
-16 0 -20 -7 -20 -35z"/>
<path fill="#005adc" d="M14 334 c-34 -52 21 -117 80 -94 34 12 50 53 35 83 -16 30 -28 37
-66 37 -24 0 -37 -7 -49 -26z"/>
<path fill="#005adc" d="M654 352 c-6 -4 -16 -17 -23 -29 -27 -51 33 -107 87 -81 62 30 46
118 -21 118 -17 0 -37 -4 -43 -8z"/>
<path fill="#005adc" d="M152 278 c-20 -71 -25 -78 -48 -78 -13 0 -41 7 -61 15 -47 20 -46 20
-27 -17 55 -109 141 -166 291 -192 l31 -5 -48 45 c-61 57 -98 138 -108 236
l-7 73 -23 -77z"/>
<path fill="#005adc" d="M581 309 c-2 -101 -58 -220 -130 -280 l-36 -29 35 6 c154 27 239 82
294 192 19 37 20 37 -27 17 -72 -30 -82 -24 -110 63 l-25 77 -1 -46z"/>
</g>
</svg>
